<svg width="24" height="24" viewBox="0 0 24 24" fill="none" xmlns="http://www.w3.org/2000/svg">
	<path d="M9.57149 17.134C9.69058 17.1887 9.83195 17.2626 9.99559 17.3555C10.1592 17.4484 10.3074 17.547 10.4402 17.6511C10.573 17.7553 10.71 17.8726 10.8511 18.0029C10.9922 18.1333 11.1291 18.2521 11.2619 18.3594C11.3947 18.4667 11.5403 18.5598 11.6987 18.6387C11.8572 18.7176 12.0331 18.7895 12.2266 18.8545C12.42 18.9195 12.6055 19.0086 12.783 19.1218C12.9605 19.235 13.1339 19.3221 13.3031 19.3831C13.4723 19.4442 13.5945 19.4949 13.6697 19.5355C13.7449 19.5761 13.8151 19.6179 13.8803 19.6611C13.9455 19.7043 13.9949 19.7552 14.0285 19.814C14.0622 19.8728 14.0925 19.9369 14.1195 20.0064C14.1466 20.0759 14.1552 20.1466 14.1455 20.2183C14.1358 20.2901 14.1211 20.3597 14.1013 20.4271C14.0816 20.4946 14.046 20.5558 13.9947 20.611C13.9434 20.6661 13.8897 20.7127 13.8335 20.7509C13.7773 20.789 13.7115 20.8161 13.6359 20.8322C13.5603 20.8484 13.4892 20.853 13.4227 20.8463C13.3561 20.8395 13.2876 20.8213 13.2173 20.7917C13.1469 20.762 13.0871 20.7228 13.0378 20.6739C12.9886 20.625 12.9453 20.5689 12.9078 20.5057C12.8704 20.4424 12.847 20.3753 12.8376 20.3044C12.8283 20.2335 12.8274 20.1624 12.835 20.0912C12.8426 20.0199 12.8643 19.9523 12.9 19.8884C12.9357 19.8244 12.9782 19.7673 13.0274 19.717C13.0767 19.6667 13.1347 19.6262 13.2017 19.5953C13.2686 19.5645 13.337 19.5447 13.4071 19.536C13.4771 19.5274 13.5482 19.5304 13.6203 19.5451C13.6924 19.5599 13.7591 19.5853 13.8205 19.6216C13.8819 19.6578 13.9365 19.7032 13.9843 19.7578C14.0322 19.8124 14.0694 19.8729 14.0961 19.9393C14.1228 20.0057 14.1384 20.075 14.1429 20.1471C14.1474 20.2192 14.1405 20.2899 14.1221 20.3593C14.1038 20.4286 14.0752 20.4934 14.0363 20.5538C13.9975 20.6141 13.949 20.6663 13.8907 20.7103C13.8325 20.7543 13.7701 20.7883 13.7035 20.8122C13.6369 20.8361 13.5667 20.8484 13.4929 20.8491C13.419 20.8498 13.3488 20.8392 13.2823 20.8172C13.2157 20.7951 13.1819 20.784 13.1809 20.7839C13.1798 20.7837 13.1183 20.7522 12.9962 20.6892C12.8742 20.6263 12.7399 20.5606 12.5932 20.4921C12.4466 20.4237 12.2879 20.348 12.1174 20.2651C11.9468 20.1823 11.7726 20.0991 11.5947 20.0155C11.4169 19.932 11.2487 19.8466 11.0903 19.7594C10.9318 19.6722 10.7793 19.5757 10.6326 19.47C10.486 19.3642 10.3542 19.2504 10.2374 19.1286C10.1206 19.0067 10.0001 18.8862 9.87598 18.7671C9.75186 18.6481 9.62011 18.5414 9.48074 18.4473C9.34137 18.3532 9.21101 18.2808 9.08967 18.2302C8.96833 18.1796 8.87576 18.1319 8.81197 18.0872C8.74818 18.0425 8.69504 17.987 8.65257 17.9208C8.6101 17.8546 8.5822 17.783 8.56885 17.706C8.5555 17.629 8.55714 17.5522 8.57379 17.4754C8.59043 17.3986 8.62129 17.3283 8.66636 17.2645C8.71143 17.2007 8.7669 17.1476 8.83277 17.1051C8.89864 17.0626 8.97024 17.0347 9.04755 17.0214C9.12486 17.008 9.20165 17.0097 9.27793 17.0263C9.3542 17.0429 9.39234 17.0515 9.39234 17.0515C9.39234 17.0515 9.45127 17.0792 9.56915 17.134H9.57149Z" fill="#1D1D1D" />
	<path d="M13.3253 16.8858C13.3007 16.9884 13.2577 17.1232 13.1964 17.2901C13.135 17.4571 13.0676 17.629 12.9941 17.806C12.9206 17.983 12.8445 18.1504 12.7658 18.3084C12.6871 18.4663 12.6072 18.6258 12.526 18.7868C12.4449 18.9478 12.3493 19.1292 12.2392 19.331C12.1291 19.5328 12.0341 19.712 11.954 19.8685C11.8739 20.025 11.789 20.1825 11.6992 20.341C11.6094 20.4994 11.5262 20.6623 11.4498 20.8298C11.3733 20.9972 11.2832 21.1553 11.1794 21.3038C11.0755 21.4524 10.9658 21.5978 10.8502 21.7401C10.7346 21.8824 10.6458 21.9748 10.5839 22.0171C10.522 22.0593 10.4582 22.091 10.3923 22.112C10.3264 22.1329 10.2557 22.1426 10.1801 22.1408C10.1045 22.1391 10.0345 22.1257 9.97002 22.1005C9.90553 22.0754 9.84347 22.0402 9.78384 21.9949C9.72421 21.9497 9.67653 21.8967 9.64083 21.8358C9.60512 21.775 9.57703 21.7094 9.55658 21.6392C9.53612 21.569 9.53032 21.498 9.53916 21.426C9.548 21.3541 9.56534 21.2848 9.59117 21.2183C9.617 21.1517 9.65539 21.0916 9.70635 21.0381C9.75732 20.9845 9.81287 20.9399 9.87303 20.9042C9.93318 20.8684 10.0002 20.8438 10.074 20.8303C10.1479 20.8168 10.2191 20.8149 10.2878 20.8246C10.3564 20.8343 10.4246 20.8553 10.4924 20.8875C10.5602 20.9198 10.6181 20.9614 10.6661 21.0123C10.7141 21.0633 10.7557 21.1214 10.7909 21.1865C10.8261 21.2517 10.8469 21.3198 10.8533 21.3909C10.8597 21.462 10.8578 21.5333 10.8476 21.6049C10.8374 21.6765 10.8127 21.7434 10.7737 21.8057C10.7347 21.8679 10.69 21.9234 10.6396 21.9721C10.5891 22.0208 10.5291 22.0593 10.4594 22.0875C10.3897 22.1158 10.3204 22.1329 10.2516 22.139C10.1828 22.1451 10.1117 22.1393 10.0384 22.1216C9.96508 22.1039 9.89955 22.0756 9.84182 22.0368C9.7841 21.998 9.73106 21.9503 9.68269 21.8938C9.63433 21.8373 9.59922 21.7752 9.57738 21.7076C9.55554 21.64 9.5422 21.5699 9.53734 21.4973C9.53249 21.4246 9.5422 21.354 9.56646 21.2854C9.59073 21.2167 9.62237 21.1528 9.66137 21.0937C9.70037 21.0346 9.72152 21.0053 9.72481 21.0058C9.72811 21.0063 9.77093 20.9593 9.85327 20.8646C9.93561 20.77 10.0299 20.6317 10.1362 20.4496C10.2424 20.2676 10.334 20.1038 10.411 19.9582C10.488 19.8126 10.5786 19.6498 10.683 19.4699C10.7873 19.2899 10.8913 19.1043 10.9948 18.9129C11.0982 18.7215 11.1912 18.5543 11.2738 18.4113C11.3563 18.2683 11.4371 18.1182 11.5161 17.961C11.5951 17.8037 11.683 17.6529 11.7795 17.5085C11.8761 17.3641 11.9548 17.2038 12.0159 17.0275C12.0769 16.8512 12.1208 16.7122 12.1477 16.6104C12.1746 16.5087 12.2026 16.4214 12.2319 16.3486C12.2612 16.2758 12.3062 16.213 12.3669 16.1603C12.4276 16.1076 12.4932 16.0669 12.5637 16.0381C12.6343 16.0093 12.71 15.9969 12.7907 16.0007C12.8715 16.0045 12.9469 16.0221 13.0169 16.0535C13.087 16.0848 13.1494 16.1298 13.2042 16.1884C13.2589 16.247 13.2997 16.3126 13.3264 16.3852C13.3531 16.4579 13.3661 16.5341 13.3654 16.6141C13.3647 16.694 13.363 16.7332 13.3602 16.7319C13.3574 16.7305 13.3453 16.7818 13.3238 16.8858H13.3253Z" fill="#1D1D1D" />
	<path d="M8.75939 18.8355C8.86444 18.8362 9.01647 18.8346 9.21547 18.8306C9.41447 18.8266 9.59995 18.8171 9.77191 18.8022C9.94387 18.7873 10.1042 18.7514 10.253 18.6946C10.4017 18.6377 10.5551 18.5772 10.7132 18.5131C10.8713 18.449 11.0412 18.3811 11.2228 18.3095C11.4045 18.2379 11.5735 18.1764 11.7299 18.1251C11.8862 18.0738 12.0587 18.0171 12.2473 17.9548C12.4359 17.8926 12.611 17.8455 12.7726 17.8136C12.9341 17.7817 13.1005 17.7596 13.2718 17.7473C13.4431 17.735 13.619 17.7215 13.7997 17.7068C13.9803 17.692 14.1415 17.6715 14.2833 17.6451C14.4251 17.6188 14.5343 17.602 14.6109 17.5947C14.6875 17.5874 14.7595 17.5928 14.8267 17.6108C14.894 17.6288 14.9599 17.6568 15.0244 17.6948C15.0888 17.7328 15.1434 17.7804 15.1882 17.8378C15.2329 17.8952 15.2684 17.9578 15.2948 18.0255C15.3211 18.0933 15.3359 18.1641 15.339 18.2377C15.3421 18.3114 15.3326 18.383 15.3104 18.4525C15.2882 18.522 15.2561 18.5868 15.2142 18.647C15.1722 18.7072 15.1219 18.7586 15.0634 18.8012C15.0048 18.8438 14.9406 18.8763 14.8709 18.8987C14.8013 18.9211 14.7293 18.9313 14.6551 18.9294C14.5809 18.9275 14.5107 18.9145 14.4445 18.8904C14.3783 18.8663 14.315 18.8312 14.2547 18.7851C14.1944 18.739 14.1458 18.6857 14.1091 18.6252C14.0723 18.5647 14.0429 18.4986 14.0207 18.427C13.9985 18.3554 13.9924 18.2836 14.0025 18.2115C14.0125 18.1394 14.0299 18.0692 14.0545 18.0011C14.0791 17.933 14.1172 17.872 14.1689 17.8181C14.2205 17.7641 14.276 17.7186 14.3353 17.6813C14.3946 17.644 14.4622 17.6186 14.5381 17.6051C14.614 17.5916 14.686 17.5891 14.7539 17.5976C14.8219 17.606 14.8912 17.6268 14.962 17.6597C15.0327 17.6926 15.0916 17.7342 15.1388 17.7845C15.1859 17.8348 15.2284 17.8931 15.2662 17.9595C15.304 18.0259 15.3256 18.0946 15.3312 18.1657C15.3367 18.2368 15.335 18.3089 15.326 18.382C15.317 18.4552 15.2927 18.5231 15.2532 18.5859C15.2137 18.6486 15.1694 18.7052 15.1206 18.7554C15.0717 18.8057 15.011 18.845 14.9386 18.8732C14.8661 18.9015 14.8323 18.9162 14.8371 18.9174C14.842 18.9186 14.8125 18.9266 14.7487 18.9413C14.6849 18.9561 14.5714 18.9765 14.4081 19.0027C14.2448 19.0289 14.0793 19.0469 13.9115 19.0568C13.7437 19.0667 13.5686 19.0782 13.3862 19.0914C13.2039 19.1046 13.0253 19.1334 12.8506 19.178C12.6758 19.2225 12.5077 19.2701 12.3461 19.3207C12.1846 19.3713 12.0242 19.4235 11.8651 19.4773C11.706 19.531 11.5369 19.5922 11.358 19.6608C11.1792 19.7295 11.0084 19.7927 10.8458 19.8506C10.6832 19.9085 10.5107 19.9588 10.3284 20.0015C10.146 20.0441 9.96485 20.0656 9.78492 20.0659C9.60498 20.0663 9.41517 20.0652 9.21547 20.0626C9.01577 20.06 8.86323 20.0583 8.75783 20.0576C8.65244 20.0569 8.56143 20.0496 8.48481 20.0355C8.40819 20.0215 8.33599 19.9916 8.26821 19.9458C8.20043 19.9 8.14522 19.8448 8.10258 19.7802C8.05994 19.7155 8.03003 19.6434 8.01287 19.5638C7.99571 19.4843 7.99571 19.4061 8.01287 19.3293C8.03003 19.2525 8.05994 19.1804 8.10258 19.113C8.14522 19.0455 8.20043 18.9903 8.26821 18.9473C8.33599 18.9043 8.40819 18.8744 8.48481 18.8576C8.56143 18.8408 8.60043 18.833 8.60182 18.8342C8.6032 18.8354 8.65521 18.8359 8.75783 18.8355H8.75939Z" fill="#1D1D1D" />
</svg>
